<svg xmlns="http://www.w3.org/2000/svg" width="1200" height="152" viewBox="0 0 1200 152" role="img" aria-label="AstrBot Live2D Desktop">
  <defs>
    <linearGradient id="bg-wash-d" x1="0%" y1="50%" x2="100%" y2="50%">
      <stop offset="0%" stop-color="#9b8cff" stop-opacity="0" />
      <stop offset="50%" stop-color="#9b8cff" stop-opacity="0.16" />
      <stop offset="100%" stop-color="#9b8cff" stop-opacity="0" />
    </linearGradient>
    <radialGradient id="halo-d" cx="50%" cy="44%" r="48%">
      <stop offset="0%" stop-color="#e8e2ff" stop-opacity="0.45" />
      <stop offset="100%" stop-color="#9b8cff" stop-opacity="0" />
    </radialGradient>
    <linearGradient id="grad-a-d" x1="0%" y1="0%" x2="100%" y2="100%">
      <stop offset="0%" stop-color="#ffffff" />
      <stop offset="100%" stop-color="#d4cbff" />
    </linearGradient>
    <linearGradient id="grad-b-d" x1="0%" y1="0%" x2="100%" y2="0%">
      <stop offset="0%" stop-color="#c4b6ff" />
      <stop offset="50%" stop-color="#fafbff" />
      <stop offset="100%" stop-color="#b8a8ff" />
    </linearGradient>
    <linearGradient id="grad-c-d" x1="0%" y1="0%" x2="100%" y2="100%">
      <stop offset="0%" stop-color="#e0d8ff" />
      <stop offset="100%" stop-color="#9b8cff" />
    </linearGradient>
    <linearGradient id="ribbon-d" x1="0%" y1="0%" x2="100%" y2="0%">
      <stop offset="0%" stop-color="#d4cbff" stop-opacity="0" />
      <stop offset="50%" stop-color="#ffffff" stop-opacity="0.9" />
      <stop offset="100%" stop-color="#d4cbff" stop-opacity="0" />
    </linearGradient>
    <linearGradient id="wing-d" x1="0%" y1="0%" x2="100%" y2="100%">
      <stop offset="0%" stop-color="#e8e2ff" stop-opacity="0.25" />
      <stop offset="100%" stop-color="#9b8cff" stop-opacity="0.06" />
    </linearGradient>
    <filter id="glow-d" x="-30%" y="-30%" width="160%" height="160%">
      <feGaussianBlur stdDeviation="5" />
    </filter>
    <symbol id="spark-d" viewBox="0 0 24 24">
      <path fill="currentColor" d="M12 2l1.8 5.5L19 9.2l-5.2 1.7L12 16l-1.8-5.1L5 9.2l5.2-1.7L12 2z" />
    </symbol>
    <symbol id="gem-d" viewBox="0 0 16 20">
      <path fill="currentColor" d="M8 0 L14 6 L8 20 L2 6 Z" />
    </symbol>
  </defs>

  <rect width="1200" height="152" fill="url(#bg-wash-d)" />
  <ellipse cx="600" cy="78" rx="540" ry="62" fill="url(#halo-d)" />

  <rect x="24" y="18" width="1152" height="116" rx="20" fill="none" stroke="#d4cbff" stroke-width="0.5" opacity="0.35" />
  <rect x="32" y="26" width="1136" height="100" rx="16" fill="none" stroke="#c4b6ff" stroke-width="0.35" opacity="0.25" stroke-dasharray="3 5" />

  <g stroke="#e8e2ff" fill="none" opacity="0.55" stroke-width="0.9">
    <path d="M 40 40 L 40 28 L 52 28" />
    <path d="M 1160 40 L 1160 28 L 1148 28" />
    <path d="M 40 112 L 40 124 L 52 124" />
    <path d="M 1160 112 L 1160 124 L 1148 124" />
  </g>

  <path d="M 32 78 C 100 48, 200 58, 248 76 C 200 88, 120 108, 32 98 Z" fill="url(#wing-d)" stroke="#d4cbff" stroke-width="0.5" opacity="0.6" />
  <path d="M 1168 78 C 1100 48, 1000 58, 952 76 C 1000 88, 1080 108, 1168 98 Z" fill="url(#wing-d)" stroke="#d4cbff" stroke-width="0.5" opacity="0.6" />

  <g fill="#e8e2ff" opacity="0.75">
    <use href="#spark-d" x="64" y="58" width="14" height="14" />
    <use href="#spark-d" x="1122" y="58" width="14" height="14" />
    <use href="#spark-d" x="96" y="88" width="11" height="11" />
    <use href="#spark-d" x="1093" y="88" width="11" height="11" />
  </g>
  <g fill="#fafbff" opacity="0.6">
    <use href="#gem-d" x="128" y="118" width="10" height="12" />
    <use href="#gem-d" x="1062" y="118" width="10" height="12" />
    <use href="#gem-d" x="148" y="122" width="7" height="9" />
    <use href="#gem-d" x="1045" y="122" width="7" height="9" />
  </g>

  <path d="M 80 76 Q 200 62 320 72" fill="none" stroke="#d4cbff" stroke-width="0.8" opacity="0.4" />
  <path d="M 1120 76 Q 1000 62 880 72" fill="none" stroke="#d4cbff" stroke-width="0.8" opacity="0.4" />
  <path d="M 100 130 Q 600 142 1100 130" fill="none" stroke="url(#ribbon-d)" stroke-width="1.8" />
  <path d="M 140 24 Q 600 8 1060 24" fill="none" stroke="url(#ribbon-d)" stroke-width="1.1" opacity="0.65" />

  <g fill="#f0ecff" opacity="0.45">
    <circle cx="220" cy="52" r="2" />
    <circle cx="980" cy="52" r="2" />
    <circle cx="248" cy="100" r="1.5" />
    <circle cx="952" cy="100" r="1.5" />
    <circle cx="276" cy="68" r="1.8" />
    <circle cx="924" cy="68" r="1.8" />
  </g>

  <g transform="translate(600 30)" opacity="0.92">
    <circle r="10" fill="none" stroke="#fafbff" stroke-width="1" />
    <circle r="5" fill="none" stroke="#e8e2ff" stroke-width="0.7" />
    <path d="M0 -14 L0 14 M-14 0 L14 0" stroke="#ffffff" stroke-width="1.1" stroke-linecap="round" />
    <use href="#spark-d" x="-7" y="-7" width="14" height="14" fill="#ffffff" />
  </g>

  <g font-family="Georgia, 'Palatino Linotype', 'Songti SC', serif" font-weight="700" font-style="italic" letter-spacing="-0.02em">
    <text x="600" y="92" text-anchor="middle" font-size="72" fill="#9b8cff" opacity="0.28" filter="url(#glow-d)">
      <tspan fill="url(#grad-a-d)">AstrBot</tspan>
      <tspan dx="14" fill="url(#grad-b-d)"> Live2D </tspan>
      <tspan dx="14" fill="url(#grad-c-d)">Desktop</tspan>
    </text>
    <text x="600" y="92" text-anchor="middle" font-size="72">
      <tspan fill="url(#grad-a-d)">AstrBot</tspan>
      <tspan dx="14" fill="url(#grad-b-d)"> Live2D </tspan>
      <tspan dx="14" fill="url(#grad-c-d)">Desktop</tspan>
    </text>
    <text x="600" y="91" text-anchor="middle" font-size="72" opacity="0.4" fill="#ffffff">
      <tspan>AstrBot</tspan>
      <tspan dx="14"> Live2D </tspan>
      <tspan dx="14">Desktop</tspan>
    </text>
  </g>

  <g fill="#fafbff" opacity="0.75">
    <circle cx="468" cy="108" r="2.5" />
    <circle cx="600" cy="110" r="3" />
    <circle cx="732" cy="108" r="2.5" />
  </g>
</svg>